<mxfile host="app.diagrams.net" modified="2022-02-09T02:20:50.212Z" agent="5.0 (Windows NT 10.0; Win64; x64) AppleWebKit/537.36 (KHTML, like Gecko) Chrome/98.0.4758.82 Safari/537.36" etag="UpetqXGxR9Hp8DNQbZbE" version="16.5.4" type="github">
  <diagram id="VrTZvLog1V25AD_LUohz" name="Page-1">
    <mxGraphModel dx="868" dy="482" grid="1" gridSize="10" guides="1" tooltips="1" connect="1" arrows="1" fold="1" page="1" pageScale="1" pageWidth="827" pageHeight="1169" math="0" shadow="0">
      <root>
        <mxCell id="0" />
        <mxCell id="1" parent="0" />
        <mxCell id="TIOGNDKluX1wfKlj1EVe-1" value="" style="whiteSpace=wrap;html=1;aspect=fixed;" vertex="1" parent="1">
          <mxGeometry x="250" y="10" width="520" height="520" as="geometry" />
        </mxCell>
        <mxCell id="TIOGNDKluX1wfKlj1EVe-2" value="&lt;font style=&quot;vertical-align: inherit&quot;&gt;&lt;font style=&quot;vertical-align: inherit&quot;&gt;employÃ©&lt;/font&gt;&lt;/font&gt;" style="shape=umlActor;verticalLabelPosition=bottom;verticalAlign=top;html=1;outlineConnect=0;" vertex="1" parent="1">
          <mxGeometry x="160" y="175" width="30" height="60" as="geometry" />
        </mxCell>
        <mxCell id="TIOGNDKluX1wfKlj1EVe-3" value="&lt;font style=&quot;vertical-align: inherit&quot;&gt;&lt;font style=&quot;vertical-align: inherit&quot;&gt;adherent&lt;/font&gt;&lt;/font&gt;" style="shape=umlActor;verticalLabelPosition=bottom;verticalAlign=top;html=1;outlineConnect=0;" vertex="1" parent="1">
          <mxGeometry x="860" y="175" width="30" height="60" as="geometry" />
        </mxCell>
        <mxCell id="TIOGNDKluX1wfKlj1EVe-7" value="&lt;font style=&quot;vertical-align: inherit&quot;&gt;&lt;font style=&quot;vertical-align: inherit&quot;&gt;athentifier&lt;/font&gt;&lt;/font&gt;" style="rounded=1;whiteSpace=wrap;html=1;" vertex="1" parent="1">
          <mxGeometry x="440" y="240" width="120" height="30" as="geometry" />
        </mxCell>
        <mxCell id="TIOGNDKluX1wfKlj1EVe-8" value="enregistrer emprunt" style="rounded=1;whiteSpace=wrap;html=1;" vertex="1" parent="1">
          <mxGeometry x="440" y="130" width="120" height="30" as="geometry" />
        </mxCell>
        <mxCell id="TIOGNDKluX1wfKlj1EVe-9" value="reserver cd rom" style="rounded=1;whiteSpace=wrap;html=1;" vertex="1" parent="1">
          <mxGeometry x="440" y="190" width="120" height="30" as="geometry" />
        </mxCell>
        <mxCell id="TIOGNDKluX1wfKlj1EVe-10" value="inscrire" style="rounded=1;whiteSpace=wrap;html=1;" vertex="1" parent="1">
          <mxGeometry x="440" y="290" width="120" height="30" as="geometry" />
        </mxCell>
        <mxCell id="TIOGNDKluX1wfKlj1EVe-11" value="emprunter cd rom" style="rounded=1;whiteSpace=wrap;html=1;" vertex="1" parent="1">
          <mxGeometry x="440" y="350" width="120" height="30" as="geometry" />
        </mxCell>
        <mxCell id="TIOGNDKluX1wfKlj1EVe-12" value="payer cotisation" style="rounded=1;whiteSpace=wrap;html=1;" vertex="1" parent="1">
          <mxGeometry x="440" y="400" width="120" height="30" as="geometry" />
        </mxCell>
        <mxCell id="TIOGNDKluX1wfKlj1EVe-13" value="rendre cd rom" style="rounded=1;whiteSpace=wrap;html=1;" vertex="1" parent="1">
          <mxGeometry x="440" y="460" width="120" height="30" as="geometry" />
        </mxCell>
        <mxCell id="TIOGNDKluX1wfKlj1EVe-14" value="organiser evenement" style="rounded=1;whiteSpace=wrap;html=1;" vertex="1" parent="1">
          <mxGeometry x="440" y="70" width="120" height="35" as="geometry" />
        </mxCell>
        <mxCell id="TIOGNDKluX1wfKlj1EVe-15" value="verifier disponiblite" style="rounded=1;whiteSpace=wrap;html=1;" vertex="1" parent="1">
          <mxGeometry x="440" y="10" width="120" height="40" as="geometry" />
        </mxCell>
        <mxCell id="TIOGNDKluX1wfKlj1EVe-29" value="" style="endArrow=none;html=1;rounded=0;exitX=0;exitY=0.75;exitDx=0;exitDy=0;" edge="1" parent="1" source="TIOGNDKluX1wfKlj1EVe-14" target="TIOGNDKluX1wfKlj1EVe-2">
          <mxGeometry relative="1" as="geometry">
            <mxPoint x="180" y="210" as="sourcePoint" />
            <mxPoint x="340" y="210" as="targetPoint" />
          </mxGeometry>
        </mxCell>
        <mxCell id="TIOGNDKluX1wfKlj1EVe-30" value="" style="endArrow=none;html=1;rounded=0;" edge="1" parent="1" target="TIOGNDKluX1wfKlj1EVe-8">
          <mxGeometry relative="1" as="geometry">
            <mxPoint x="190" y="200" as="sourcePoint" />
            <mxPoint x="340" y="210" as="targetPoint" />
          </mxGeometry>
        </mxCell>
        <mxCell id="TIOGNDKluX1wfKlj1EVe-31" value="" style="endArrow=none;html=1;rounded=0;entryX=1;entryY=0.25;entryDx=0;entryDy=0;" edge="1" parent="1" source="TIOGNDKluX1wfKlj1EVe-3" target="TIOGNDKluX1wfKlj1EVe-15">
          <mxGeometry relative="1" as="geometry">
            <mxPoint x="700" y="205" as="sourcePoint" />
            <mxPoint x="700" y="205" as="targetPoint" />
          </mxGeometry>
        </mxCell>
        <mxCell id="TIOGNDKluX1wfKlj1EVe-32" value="" style="endArrow=none;html=1;rounded=0;exitX=1;exitY=0.5;exitDx=0;exitDy=0;" edge="1" parent="1" source="TIOGNDKluX1wfKlj1EVe-11" target="TIOGNDKluX1wfKlj1EVe-3">
          <mxGeometry relative="1" as="geometry">
            <mxPoint x="700" y="200" as="sourcePoint" />
            <mxPoint x="860" y="200" as="targetPoint" />
          </mxGeometry>
        </mxCell>
        <mxCell id="TIOGNDKluX1wfKlj1EVe-33" value="" style="endArrow=none;html=1;rounded=0;exitX=1;exitY=0.25;exitDx=0;exitDy=0;" edge="1" parent="1" source="TIOGNDKluX1wfKlj1EVe-9">
          <mxGeometry relative="1" as="geometry">
            <mxPoint x="690" y="200" as="sourcePoint" />
            <mxPoint x="850" y="200" as="targetPoint" />
          </mxGeometry>
        </mxCell>
        <mxCell id="TIOGNDKluX1wfKlj1EVe-34" value="" style="endArrow=none;html=1;rounded=0;exitX=1;exitY=0.5;exitDx=0;exitDy=0;" edge="1" parent="1" source="TIOGNDKluX1wfKlj1EVe-10">
          <mxGeometry relative="1" as="geometry">
            <mxPoint x="710" y="210" as="sourcePoint" />
            <mxPoint x="870" y="210" as="targetPoint" />
          </mxGeometry>
        </mxCell>
        <mxCell id="TIOGNDKluX1wfKlj1EVe-35" value="" style="endArrow=none;html=1;rounded=0;exitX=1;exitY=0.5;exitDx=0;exitDy=0;" edge="1" parent="1" source="TIOGNDKluX1wfKlj1EVe-12">
          <mxGeometry relative="1" as="geometry">
            <mxPoint x="710" y="210" as="sourcePoint" />
            <mxPoint x="870" y="210" as="targetPoint" />
          </mxGeometry>
        </mxCell>
        <mxCell id="TIOGNDKluX1wfKlj1EVe-36" value="" style="endArrow=none;html=1;rounded=0;exitX=1;exitY=0.5;exitDx=0;exitDy=0;" edge="1" parent="1" source="TIOGNDKluX1wfKlj1EVe-13">
          <mxGeometry relative="1" as="geometry">
            <mxPoint x="700" y="210" as="sourcePoint" />
            <mxPoint x="860" y="210" as="targetPoint" />
          </mxGeometry>
        </mxCell>
        <mxCell id="TIOGNDKluX1wfKlj1EVe-40" value="&amp;lt;&amp;lt;include&amp;gt;&amp;gt;" style="endArrow=open;endSize=12;dashed=1;html=1;rounded=0;entryX=0;entryY=0.5;entryDx=0;entryDy=0;exitX=0.365;exitY=0.788;exitDx=0;exitDy=0;exitPerimeter=0;" edge="1" parent="1" source="TIOGNDKluX1wfKlj1EVe-1" target="TIOGNDKluX1wfKlj1EVe-7">
          <mxGeometry width="160" relative="1" as="geometry">
            <mxPoint x="280" y="410" as="sourcePoint" />
            <mxPoint x="440" y="410" as="targetPoint" />
            <Array as="points">
              <mxPoint x="300" y="350" />
            </Array>
          </mxGeometry>
        </mxCell>
        <mxCell id="TIOGNDKluX1wfKlj1EVe-41" value="&amp;lt;&amp;lt;include&amp;gt;&amp;gt;" style="endArrow=open;endSize=12;dashed=1;html=1;rounded=0;entryX=0.596;entryY=0.481;entryDx=0;entryDy=0;entryPerimeter=0;" edge="1" parent="1" target="TIOGNDKluX1wfKlj1EVe-1">
          <mxGeometry width="160" relative="1" as="geometry">
            <mxPoint x="560" y="90" as="sourcePoint" />
            <mxPoint x="720" y="90" as="targetPoint" />
            <Array as="points">
              <mxPoint x="740" y="170" />
            </Array>
          </mxGeometry>
        </mxCell>
        <mxCell id="TIOGNDKluX1wfKlj1EVe-42" value="&amp;lt;&amp;lt;include&amp;gt;&amp;gt;" style="endArrow=open;endSize=12;dashed=1;html=1;rounded=0;entryX=0;entryY=0.5;entryDx=0;entryDy=0;exitX=0;exitY=0.5;exitDx=0;exitDy=0;" edge="1" parent="1" source="TIOGNDKluX1wfKlj1EVe-10" target="TIOGNDKluX1wfKlj1EVe-15">
          <mxGeometry width="160" relative="1" as="geometry">
            <mxPoint x="280" y="310" as="sourcePoint" />
            <mxPoint x="440" y="310" as="targetPoint" />
            <Array as="points">
              <mxPoint x="300" y="230" />
            </Array>
          </mxGeometry>
        </mxCell>
      </root>
    </mxGraphModel>
  </diagram>
</mxfile>
